<mxfile host="app.diagrams.net" modified="2023-12-05T09:46:11.109Z" agent="Mozilla/5.0 (Macintosh; Intel Mac OS X 10_15_7) AppleWebKit/605.1.15 (KHTML, like Gecko) Version/16.3 Safari/605.1.15" etag="0cRi1B4RSRRU0iGwczXC" version="22.1.5" type="device">
  <diagram name="Página-1" id="2CB87AXx0N9vuEwkTs7g">
    <mxGraphModel dx="578" dy="392" grid="0" gridSize="10" guides="1" tooltips="1" connect="1" arrows="1" fold="1" page="1" pageScale="1" pageWidth="827" pageHeight="1169" math="0" shadow="0">
      <root>
        <mxCell id="0" />
        <mxCell id="1" parent="0" />
        <mxCell id="mljp3M7QbO9RlFnG7vRi-1" value="" style="endArrow=none;html=1;rounded=0;" parent="1" edge="1">
          <mxGeometry width="50" height="50" relative="1" as="geometry">
            <mxPoint x="160" y="290" as="sourcePoint" />
            <mxPoint x="320" y="290" as="targetPoint" />
          </mxGeometry>
        </mxCell>
        <mxCell id="mljp3M7QbO9RlFnG7vRi-2" value="" style="shape=mxgraph.signs.transportation.airplane_1;html=1;pointerEvents=1;fillColor=#000000;strokeColor=none;verticalLabelPosition=bottom;verticalAlign=top;align=center;" parent="1" vertex="1">
          <mxGeometry x="190" y="150" width="50" height="15" as="geometry" />
        </mxCell>
        <mxCell id="mljp3M7QbO9RlFnG7vRi-4" value="" style="endArrow=none;dashed=1;html=1;dashPattern=1 3;strokeWidth=2;rounded=0;" parent="1" edge="1">
          <mxGeometry width="50" height="50" relative="1" as="geometry">
            <mxPoint x="210" y="290" as="sourcePoint" />
            <mxPoint x="210" y="170" as="targetPoint" />
          </mxGeometry>
        </mxCell>
        <mxCell id="mljp3M7QbO9RlFnG7vRi-5" value="" style="endArrow=none;html=1;rounded=0;entryX=0.4;entryY=1.267;entryDx=0;entryDy=0;entryPerimeter=0;" parent="1" target="mljp3M7QbO9RlFnG7vRi-2" edge="1">
          <mxGeometry width="50" height="50" relative="1" as="geometry">
            <mxPoint x="310" y="290" as="sourcePoint" />
            <mxPoint x="210" y="180" as="targetPoint" />
          </mxGeometry>
        </mxCell>
        <mxCell id="mljp3M7QbO9RlFnG7vRi-6" value="" style="shape=image;html=1;verticalAlign=top;verticalLabelPosition=bottom;labelBackgroundColor=#ffffff;imageAspect=0;aspect=fixed;image=https://cdn0.iconfinder.com/data/icons/phosphor-thin-vol-1/256/arrow-arc-right-thin-128.png;direction=west;" parent="1" vertex="1">
          <mxGeometry x="210" y="180" width="14" height="14" as="geometry" />
        </mxCell>
        <mxCell id="lpXl7VN-Vx0xppy2avIa-1" value="&lt;font style=&quot;font-size: 9px;&quot;&gt;θ&lt;/font&gt;" style="text;html=1;strokeColor=none;fillColor=none;align=center;verticalAlign=middle;whiteSpace=wrap;rounded=0;" vertex="1" parent="1">
          <mxGeometry x="216" y="192" width="10" height="6" as="geometry" />
        </mxCell>
        <mxCell id="lpXl7VN-Vx0xppy2avIa-2" value="&lt;font style=&quot;font-size: 9px;&quot;&gt;θ&lt;/font&gt;" style="text;html=1;strokeColor=none;fillColor=none;align=center;verticalAlign=middle;whiteSpace=wrap;rounded=0;" vertex="1" parent="1">
          <mxGeometry x="250" y="280" width="10" height="6" as="geometry" />
        </mxCell>
        <mxCell id="lpXl7VN-Vx0xppy2avIa-3" value="" style="endArrow=none;html=1;rounded=0;fillColor=#f8cecc;strokeColor=#b85450;" edge="1" parent="1">
          <mxGeometry width="50" height="50" relative="1" as="geometry">
            <mxPoint x="230" y="290" as="sourcePoint" />
            <mxPoint x="274" y="247" as="targetPoint" />
          </mxGeometry>
        </mxCell>
        <mxCell id="lpXl7VN-Vx0xppy2avIa-4" value="" style="shape=image;html=1;verticalAlign=top;verticalLabelPosition=bottom;labelBackgroundColor=#ffffff;imageAspect=0;aspect=fixed;image=https://cdn0.iconfinder.com/data/icons/phosphor-thin-vol-1/256/arrow-arc-right-thin-128.png;direction=west;rotation=-105;" vertex="1" parent="1">
          <mxGeometry x="240" y="276" width="14" height="14" as="geometry" />
        </mxCell>
        <mxCell id="lpXl7VN-Vx0xppy2avIa-8" value="" style="shape=partialRectangle;whiteSpace=wrap;html=1;top=0;left=0;fillColor=none;rotation=45;" vertex="1" parent="1">
          <mxGeometry x="268.65" y="248.85" width="6" height="11" as="geometry" />
        </mxCell>
        <mxCell id="lpXl7VN-Vx0xppy2avIa-10" value="" style="endArrow=none;html=1;rounded=0;fillColor=#dae8fc;strokeColor=#6c8ebf;" edge="1" parent="1">
          <mxGeometry width="50" height="50" relative="1" as="geometry">
            <mxPoint x="230" y="290" as="sourcePoint" />
            <mxPoint x="310" y="290" as="targetPoint" />
          </mxGeometry>
        </mxCell>
        <mxCell id="lpXl7VN-Vx0xppy2avIa-11" value="" style="endArrow=none;html=1;rounded=0;fillColor=#d5e8d4;strokeColor=#82b366;" edge="1" parent="1">
          <mxGeometry width="50" height="50" relative="1" as="geometry">
            <mxPoint x="310" y="290" as="sourcePoint" />
            <mxPoint x="273.65" y="246" as="targetPoint" />
          </mxGeometry>
        </mxCell>
        <mxCell id="lpXl7VN-Vx0xppy2avIa-17" value="&lt;font style=&quot;font-size: 9px;&quot;&gt;c / 2B&lt;/font&gt;" style="text;html=1;align=center;verticalAlign=middle;resizable=0;points=[];autosize=1;strokeColor=none;fillColor=none;rotation=52;fontColor=#82B366;" vertex="1" parent="1">
          <mxGeometry x="274.65" y="247" width="50" height="30" as="geometry" />
        </mxCell>
        <mxCell id="lpXl7VN-Vx0xppy2avIa-18" value="&lt;font style=&quot;font-size: 9px;&quot;&gt;&lt;font style=&quot;font-size: 9px;&quot;&gt;c / 2Bsin(&lt;/font&gt;θ)&lt;/font&gt;" style="text;html=1;align=center;verticalAlign=middle;resizable=0;points=[];autosize=1;strokeColor=none;fillColor=none;rotation=0;fontColor=#6C8EBF;" vertex="1" parent="1">
          <mxGeometry x="239.64999999999998" y="282" width="64" height="26" as="geometry" />
        </mxCell>
        <mxCell id="lpXl7VN-Vx0xppy2avIa-19" value="&lt;font style=&quot;font-size: 9px;&quot;&gt;&lt;font style=&quot;font-size: 9px;&quot;&gt;c / 2Btg(&lt;/font&gt;θ)&lt;/font&gt;" style="text;html=1;align=center;verticalAlign=middle;resizable=0;points=[];autosize=1;strokeColor=none;fillColor=none;rotation=-45;fontColor=#B85450;" vertex="1" parent="1">
          <mxGeometry x="206.64999999999998" y="251" width="70" height="30" as="geometry" />
        </mxCell>
      </root>
    </mxGraphModel>
  </diagram>
</mxfile>
